<?xml version="1.0" encoding="UTF-8"?>
<svg version="1.1" xmlns="http://www.w3.org/2000/svg" width="500" height="500">
<path d="M0 0 C165 0 330 0 500 0 C500 165 500 330 500 500 C335 500 170 500 0 500 C0 335 0 170 0 0 Z " fill="#FEFEFE" transform="translate(0,0)"/>
<path d="M0 0 C2.66100932 1.35544137 5.27206768 2.78646796 7.875 4.25 C8.62910156 4.67128174 9.38320313 5.09256348 10.16015625 5.52661133 C18.34643159 10.13627173 26.40993353 14.95421954 34.48168945 19.76049805 C46.58370136 26.96339239 58.78714939 33.9869358 71 41 C85.34420385 49.23696496 99.64569469 57.53478105 113.85693359 65.99951172 C119.59032475 69.40853257 125.33916928 72.78548757 131.12890625 76.09765625 C131.71364716 76.43260101 132.29838806 76.76754578 132.90084839 77.11264038 C135.68014648 78.70357098 138.46249365 80.2887219 141.25 81.86523438 C146.07686389 84.62033622 150.84930555 87.4454981 155.49609375 90.49609375 C156.27009521 91.00197021 157.04409668 91.50784668 157.84155273 92.02905273 C161.92661837 95.75925688 163.80655993 99.49676836 164.50057125 104.8899622 C164.52103947 106.32794947 164.52001655 107.76635106 164.50120544 109.20436096 C164.50673984 110.00240125 164.51227424 110.80044154 164.51797634 111.62266487 C164.5315298 114.28204983 164.51664299 116.94048761 164.50170898 119.59985352 C164.50549406 121.5123128 164.51099566 123.42476934 164.51808167 125.33721924 C164.53202788 130.52104346 164.52087266 135.70453546 164.50437045 140.88834119 C164.49050745 146.3161019 164.49698138 151.74384357 164.50050354 157.1716156 C164.50320444 166.28495632 164.48973957 175.39816525 164.46655273 184.51147461 C164.43993583 195.04581779 164.43819891 205.57994074 164.4499411 216.11430603 C164.46072166 226.25217096 164.45453012 236.38995626 164.44038582 246.52781487 C164.43462926 250.84068625 164.4347061 255.1534993 164.43945122 259.46637154 C164.44422494 264.5447187 164.43410283 269.62282479 164.41249657 274.7011261 C164.40693423 276.56433232 164.40645833 278.42756174 164.41144943 280.29076958 C164.41740992 282.83498773 164.40488277 285.37847072 164.38768005 287.92262268 C164.3936901 288.65910571 164.39970014 289.39558874 164.40589231 290.15438944 C164.33978219 295.53481621 163.09755504 299.56702112 159.56030273 303.66992188 C154.42782925 307.93162922 148.8556785 311.21437978 143.0625 314.5 C140.90482487 315.74067145 138.74727626 316.98156295 136.58984375 318.22265625 C135.49269043 318.85059082 134.39553711 319.47852539 133.26513672 320.12548828 C128.20088267 323.03287146 123.16433549 325.98721639 118.125 328.9375 C109.83085522 333.78219173 101.51399545 338.58617035 93.1875 343.375 C84.25129826 348.51662348 75.36094387 353.72979462 66.5 359 C54.49782674 366.1371979 42.42177569 373.1383403 30.31298828 380.09277344 C26.82814899 382.09893147 23.34899465 384.11466335 19.87109375 386.1328125 C18.68827211 386.81834648 17.50541119 387.50381269 16.32250977 388.18920898 C14.08892371 389.48386955 11.85627782 390.78015405 9.62475586 392.07836914 C-9.23691138 402.9963871 -9.23691138 402.9963871 -18 401 C-23.37693289 398.80704349 -28.30757251 395.67961297 -33.25488281 392.66894531 C-36.21660466 390.86831114 -39.19591698 389.0997834 -42.1796875 387.3359375 C-45.57037212 385.33125548 -48.96035216 383.32554644 -52.34375 381.30859375 C-60.50976102 376.44418913 -68.73502931 371.69398784 -77 367 C-86.26394187 361.73689444 -95.46950278 356.38819308 -104.625 350.9375 C-118.8299931 342.48079891 -133.14560461 334.22269794 -147.48730469 326.00048828 C-149.83592514 324.65400052 -152.18381609 323.30625554 -154.53100586 321.95727539 C-156.72322822 320.6976863 -158.91665607 319.44019175 -161.11157227 318.18530273 C-185.22493242 304.32520275 -185.22493242 304.32520275 -188 296 C-188.10630662 293.40878458 -188.15654357 290.84383198 -188.16062927 288.25215149 C-188.16571709 287.45485648 -188.17080491 286.65756147 -188.17604691 285.836106 C-188.1917852 283.1554689 -188.2003001 280.47485878 -188.20874023 277.79418945 C-188.21827758 275.87571542 -188.22816869 273.95724311 -188.23838806 272.03877258 C-188.26978668 265.73029627 -188.29004123 259.42180671 -188.30859375 253.11328125 C-188.31189107 252.04017063 -188.31518839 250.96706001 -188.31858563 249.86143088 C-188.34936667 239.74177377 -188.37607551 229.6221137 -188.39300442 219.50242329 C-188.41491441 206.5567372 -188.45689223 193.61146569 -188.52644199 180.66594535 C-188.57368056 171.56435125 -188.5979378 162.46286902 -188.6052013 153.36115617 C-188.6101577 147.92475244 -188.62523793 142.48881588 -188.6649456 137.05254555 C-188.70182253 131.93637653 -188.710218 126.82094131 -188.69693947 121.70466423 C-188.6969934 119.82936288 -188.70728244 117.95402893 -188.7286911 116.07884979 C-188.91370806 98.95451278 -188.91370806 98.95451278 -183.57638645 93.30426311 C-181.06457455 91.22605215 -178.60196027 89.52905603 -175.75 87.9375 C-175.1199707 87.57793213 -174.48994141 87.21836426 -173.84082031 86.84790039 C-172.39387733 86.02322399 -170.94272536 85.20590508 -169.48828125 84.39453125 C-165.64849145 82.24256114 -161.84160828 80.03413764 -158.03027344 77.83227539 C-155.81602269 76.55326378 -153.60049546 75.27645986 -151.38378906 74.00170898 C-143.38423881 69.39792569 -135.43199442 64.71952231 -127.5 60 C-113.33577677 51.576761 -99.06119256 43.35174015 -84.77050781 35.14550781 C-72.42328854 28.05210683 -60.1130021 20.90487973 -47.875 13.625 C-40.450409 9.21063619 -33.02275311 4.80804906 -25.5 0.5625 C-24.86562012 0.2030127 -24.23124023 -0.15647461 -23.57763672 -0.52685547 C-14.63759677 -5.52431514 -8.79146054 -4.26061748 0 0 Z " fill="#000000" transform="translate(262,13)"/>
<path d="M0 0 C2.66100932 1.35544137 5.27206768 2.78646796 7.875 4.25 C8.62910156 4.67128174 9.38320313 5.09256348 10.16015625 5.52661133 C18.34643159 10.13627173 26.40993353 14.95421954 34.48168945 19.76049805 C46.58370136 26.96339239 58.78714939 33.9869358 71 41 C85.34420385 49.23696496 99.64569469 57.53478105 113.85693359 65.99951172 C119.59032475 69.40853257 125.33916928 72.78548757 131.12890625 76.09765625 C131.71364716 76.43260101 132.29838806 76.76754578 132.90084839 77.11264038 C135.68014648 78.70357098 138.46249365 80.2887219 141.25 81.86523438 C146.07686389 84.62033622 150.84930555 87.4454981 155.49609375 90.49609375 C156.27009521 91.00197021 157.04409668 91.50784668 157.84155273 92.02905273 C161.92661837 95.75925688 163.80655993 99.49676836 164.50057125 104.8899622 C164.52103947 106.32794947 164.52001655 107.76635106 164.50120544 109.20436096 C164.50673984 110.00240125 164.51227424 110.80044154 164.51797634 111.62266487 C164.5315298 114.28204983 164.51664299 116.94048761 164.50170898 119.59985352 C164.50549406 121.5123128 164.51099566 123.42476934 164.51808167 125.33721924 C164.53202788 130.52104346 164.52087266 135.70453546 164.50437045 140.88834119 C164.49050745 146.3161019 164.49698138 151.74384357 164.50050354 157.1716156 C164.50320444 166.28495632 164.48973957 175.39816525 164.46655273 184.51147461 C164.43993583 195.04581779 164.43819891 205.57994074 164.4499411 216.11430603 C164.46072166 226.25217096 164.45453012 236.38995626 164.44038582 246.52781487 C164.43462926 250.84068625 164.4347061 255.1534993 164.43945122 259.46637154 C164.44422494 264.5447187 164.43410283 269.62282479 164.41249657 274.7011261 C164.40693423 276.56433232 164.40645833 278.42756174 164.41144943 280.29076958 C164.41740992 282.83498773 164.40488277 285.37847072 164.38768005 287.92262268 C164.3936901 288.65910571 164.39970014 289.39558874 164.40589231 290.15438944 C164.33978219 295.53481621 163.09755504 299.56702112 159.56030273 303.66992188 C154.42782925 307.93162922 148.8556785 311.21437978 143.0625 314.5 C140.90482487 315.74067145 138.74727626 316.98156295 136.58984375 318.22265625 C135.49269043 318.85059082 134.39553711 319.47852539 133.26513672 320.12548828 C128.20088267 323.03287146 123.16433549 325.98721639 118.125 328.9375 C109.83085522 333.78219173 101.51399545 338.58617035 93.1875 343.375 C84.25129826 348.51662348 75.36094387 353.72979462 66.5 359 C54.49782674 366.1371979 42.42177569 373.1383403 30.31298828 380.09277344 C26.82814899 382.09893147 23.34899465 384.11466335 19.87109375 386.1328125 C18.68827211 386.81834648 17.50541119 387.50381269 16.32250977 388.18920898 C14.08892371 389.48386955 11.85627782 390.78015405 9.62475586 392.07836914 C-9.23691138 402.9963871 -9.23691138 402.9963871 -18 401 C-23.37693289 398.80704349 -28.30757251 395.67961297 -33.25488281 392.66894531 C-36.21660466 390.86831114 -39.19591698 389.0997834 -42.1796875 387.3359375 C-45.57037212 385.33125548 -48.96035216 383.32554644 -52.34375 381.30859375 C-60.50976102 376.44418913 -68.73502931 371.69398784 -77 367 C-86.26394187 361.73689444 -95.46950278 356.38819308 -104.625 350.9375 C-118.8299931 342.48079891 -133.14560461 334.22269794 -147.48730469 326.00048828 C-149.83592514 324.65400052 -152.18381609 323.30625554 -154.53100586 321.95727539 C-156.72322822 320.6976863 -158.91665607 319.44019175 -161.11157227 318.18530273 C-185.22493242 304.32520275 -185.22493242 304.32520275 -188 296 C-188.10630662 293.40878458 -188.15654357 290.84383198 -188.16062927 288.25215149 C-188.16571709 287.45485648 -188.17080491 286.65756147 -188.17604691 285.836106 C-188.1917852 283.1554689 -188.2003001 280.47485878 -188.20874023 277.79418945 C-188.21827758 275.87571542 -188.22816869 273.95724311 -188.23838806 272.03877258 C-188.26978668 265.73029627 -188.29004123 259.42180671 -188.30859375 253.11328125 C-188.31189107 252.04017063 -188.31518839 250.96706001 -188.31858563 249.86143088 C-188.34936667 239.74177377 -188.37607551 229.6221137 -188.39300442 219.50242329 C-188.41491441 206.5567372 -188.45689223 193.61146569 -188.52644199 180.66594535 C-188.57368056 171.56435125 -188.5979378 162.46286902 -188.6052013 153.36115617 C-188.6101577 147.92475244 -188.62523793 142.48881588 -188.6649456 137.05254555 C-188.70182253 131.93637653 -188.710218 126.82094131 -188.69693947 121.70466423 C-188.6969934 119.82936288 -188.70728244 117.95402893 -188.7286911 116.07884979 C-188.91370806 98.95451278 -188.91370806 98.95451278 -183.57638645 93.30426311 C-181.06457455 91.22605215 -178.60196027 89.52905603 -175.75 87.9375 C-175.1199707 87.57793213 -174.48994141 87.21836426 -173.84082031 86.84790039 C-172.39387733 86.02322399 -170.94272536 85.20590508 -169.48828125 84.39453125 C-165.64849145 82.24256114 -161.84160828 80.03413764 -158.03027344 77.83227539 C-155.81602269 76.55326378 -153.60049546 75.27645986 -151.38378906 74.00170898 C-143.38423881 69.39792569 -135.43199442 64.71952231 -127.5 60 C-113.33577677 51.576761 -99.06119256 43.35174015 -84.77050781 35.14550781 C-72.42328854 28.05210683 -60.1130021 20.90487973 -47.875 13.625 C-40.450409 9.21063619 -33.02275311 4.80804906 -25.5 0.5625 C-24.86562012 0.2030127 -24.23124023 -0.15647461 -23.57763672 -0.52685547 C-14.63759677 -5.52431514 -8.79146054 -4.26061748 0 0 Z M-20.32421875 38.71875 C-21.33871094 39.31300781 -22.35320312 39.90726563 -23.3984375 40.51953125 C-25.02652344 41.49986328 -25.02652344 41.49986328 -26.6875 42.5 C-27.84175457 43.18216412 -28.99671715 43.86313151 -30.15234375 44.54296875 C-33.17635117 46.3260662 -36.19102712 48.1243458 -39.20355225 49.92675781 C-42.06467193 51.63606127 -44.93293429 53.33326486 -47.80078125 55.03125 C-51.16281451 57.02231428 -54.52420542 59.01439118 -57.8828125 61.01123047 C-66.6925469 66.24550317 -75.55408906 71.38504803 -84.43701172 76.49389648 C-92.66295395 81.22496597 -100.86912699 85.988706 -109.06054688 90.77929688 C-114.25262189 93.81577987 -119.450777 96.84093598 -124.66015625 99.84765625 C-125.75247559 100.47986084 -126.84479492 101.11206543 -127.97021484 101.76342773 C-130.06109696 102.97324532 -132.15377571 104.17996502 -134.24853516 105.38305664 C-135.66271729 106.20277954 -135.66271729 106.20277954 -137.10546875 107.0390625 C-138.34526489 107.75376709 -138.34526489 107.75376709 -139.61010742 108.48291016 C-142.33065104 110.20989535 -144.67123958 111.75330096 -147 114 C-147.7500969 117.00033907 -147.7500969 117.00033907 -147.63491821 120.41442871 C-147.64271817 121.05614187 -147.65051812 121.69785502 -147.65855443 122.35901403 C-147.67848547 124.50750631 -147.66270853 126.65422925 -147.64697266 128.80273438 C-147.6537484 130.34362319 -147.6626513 131.8845039 -147.67352295 133.42536926 C-147.69632846 137.60935357 -147.68747512 141.79272184 -147.67162752 145.976717 C-147.65897487 150.35375767 -147.67070686 154.73074535 -147.67855835 159.10778809 C-147.68765679 166.45851113 -147.67566199 173.80898305 -147.65185547 181.15966797 C-147.62464369 189.65998569 -147.63345773 198.15970381 -147.6609875 206.660007 C-147.68367212 213.95610804 -147.68688186 221.25202849 -147.67379415 228.5481534 C-147.66599602 232.90672924 -147.66496781 237.26502317 -147.68147659 241.62358093 C-147.69591285 245.72124507 -147.68591598 249.81813567 -147.65700531 253.91571617 C-147.65038984 255.42015485 -147.65230016 256.92465855 -147.66331863 258.42907143 C-147.67696986 260.48211876 -147.65987085 262.53268263 -147.63491821 264.58557129 C-147.63209052 266.3089056 -147.63209052 266.3089056 -147.6292057 268.06705475 C-146.80025446 271.93108298 -145.25274191 272.89080654 -142 275 C-140.2453103 276.09699318 -138.4662384 277.15569715 -136.66796875 278.1796875 C-135.63462402 278.77144775 -134.6012793 279.36320801 -133.53662109 279.97290039 C-131.87880615 280.9144397 -131.87880615 280.9144397 -130.1875 281.875 C-128.42727278 282.88134406 -126.66797257 283.88929624 -124.90869141 284.89729309 C-123.70714465 285.58559075 -122.50531943 286.27340253 -121.30322266 286.96073914 C-115.47432603 290.29466293 -109.67209504 293.67360664 -103.875 297.0625 C-102.40389771 297.92174072 -102.40389771 297.92174072 -100.90307617 298.79833984 C-98.92451951 299.95405477 -96.94608478 301.10997848 -94.96777344 302.26611328 C-89.98009043 305.1801084 -84.98991295 308.08982568 -80 311 C-77.9999882 312.16664643 -75.99998819 313.33331309 -74 314.5 C-72.515 315.36625 -72.515 315.36625 -71 316.25 C-68 318 -65 319.75 -62 321.5 C-61.00846924 322.07838623 -60.01693848 322.65677246 -58.99536133 323.25268555 C-57.01079992 324.41035985 -55.02626186 325.56807419 -53.04174805 326.72583008 C-47.80573605 329.78042169 -42.56922829 332.83415931 -37.33203125 335.88671875 C-36.24083984 336.52287109 -35.14964844 337.15902344 -34.02539062 337.81445312 C-31.93439425 339.03345952 -29.84325584 340.25222235 -27.75195312 341.47070312 C-26.80900391 342.02048828 -25.86605469 342.57027344 -24.89453125 343.13671875 C-24.06800049 343.61842529 -23.24146973 344.10013184 -22.38989258 344.59643555 C-20 346 -20 346 -17.5690918 347.67895508 C-14.40055352 349.30823956 -12.52608275 349.41728115 -9 349 C-6.29257481 347.91740189 -6.29257481 347.91740189 -3.67578125 346.28125 C-2.66128906 345.68699219 -1.64679688 345.09273438 -0.6015625 344.48046875 C1.02652344 343.50013672 1.02652344 343.50013672 2.6875 342.5 C3.84175457 341.81783588 4.99671715 341.13686849 6.15234375 340.45703125 C9.17635117 338.6739338 12.19102712 336.8756542 15.20355225 335.07324219 C18.06467193 333.36393873 20.93293429 331.66673514 23.80078125 329.96875 C27.16281451 327.97768572 30.52420542 325.98560882 33.8828125 323.98876953 C42.6925469 318.75449683 51.55408906 313.61495197 60.43701172 308.50610352 C68.66295395 303.77503403 76.86912699 299.011294 85.06054688 294.22070312 C90.25262189 291.18422013 95.450777 288.15906402 100.66015625 285.15234375 C101.75247559 284.52013916 102.84479492 283.88793457 103.97021484 283.23657227 C106.06109696 282.02675468 108.15377571 280.82003498 110.24853516 279.61694336 C111.19132324 279.07046143 112.13411133 278.52397949 113.10546875 277.9609375 C113.93199951 277.48446777 114.75853027 277.00799805 115.61010742 276.51708984 C118.33065104 274.79010465 120.67123958 273.24669904 123 271 C123.7500969 267.99966093 123.7500969 267.99966093 123.63491821 264.58557129 C123.64271817 263.94385813 123.65051812 263.30214498 123.65855443 262.64098597 C123.67848547 260.49249369 123.66270853 258.34577075 123.64697266 256.19726562 C123.6537484 254.65637681 123.6626513 253.1154961 123.67352295 251.57463074 C123.69632846 247.39064643 123.68747512 243.20727816 123.67162752 239.023283 C123.65897487 234.64624233 123.67070686 230.26925465 123.67855835 225.89221191 C123.68765679 218.54148887 123.67566199 211.19101695 123.65185547 203.84033203 C123.62464369 195.34001431 123.63345773 186.84029619 123.6609875 178.339993 C123.68367212 171.04389196 123.68688186 163.74797151 123.67379415 156.4518466 C123.66599602 152.09327076 123.66496781 147.73497683 123.68147659 143.37641907 C123.69591285 139.27875493 123.68591598 135.18186433 123.65700531 131.08428383 C123.65038984 129.57984515 123.65230016 128.07534145 123.66331863 126.57092857 C123.67696986 124.51788124 123.65987085 122.46731737 123.63491821 120.41442871 C123.63209052 118.6910944 123.63209052 118.6910944 123.6292057 116.93294525 C122.80025446 113.06891702 121.25274191 112.10919346 118 110 C116.2453103 108.90300682 114.4662384 107.84430285 112.66796875 106.8203125 C111.63462402 106.22855225 110.6012793 105.63679199 109.53662109 105.02709961 C108.43141113 104.39940674 107.32620117 103.77171387 106.1875 103.125 C104.42727278 102.11865594 102.66797257 101.11070376 100.90869141 100.10270691 C99.70714465 99.41440925 98.50531943 98.72659747 97.30322266 98.03926086 C91.47432603 94.70533707 85.67209504 91.32639336 79.875 87.9375 C78.89426514 87.36467285 77.91353027 86.7918457 76.90307617 86.20166016 C74.92451951 85.04594523 72.94608478 83.89002152 70.96777344 82.73388672 C65.98009043 79.8198916 60.98991295 76.91017432 56 74 C53.9999882 72.83335357 51.99998819 71.66668691 50 70.5 C49.01 69.9225 48.02 69.345 47 68.75 C44 67 41 65.25 38 63.5 C37.00846924 62.92161377 36.01693848 62.34322754 34.99536133 61.74731445 C33.01079992 60.58964015 31.02626186 59.43192581 29.04174805 58.27416992 C23.80573605 55.21957831 18.56922829 52.16584069 13.33203125 49.11328125 C12.24083984 48.47712891 11.14964844 47.84097656 10.02539062 47.18554688 C7.93439425 45.96654048 5.84325584 44.74777765 3.75195312 43.52929688 C2.80900391 42.97951172 1.86605469 42.42972656 0.89453125 41.86328125 C-0.34526489 41.14072144 -0.34526489 41.14072144 -1.61010742 40.40356445 C-4 39 -4 39 -6.4309082 37.32104492 C-11.65774499 34.63336899 -15.48868943 35.84478259 -20.32421875 38.71875 Z " fill="#010101" transform="translate(262,13)"/>
<path d="M0 0 C10.56 0 21.12 0 32 0 C33.08667969 2.17464844 34.17335937 4.34929687 35.29296875 6.58984375 C38.19565066 12.39711588 41.10353679 18.20175655 44.01516724 24.00454712 C45.95335016 27.86804012 47.88970782 31.73244675 49.82592773 35.59692383 C50.81087669 37.56180722 51.79654484 39.52633027 52.78295898 41.49047852 C58.68872021 53.25181037 64.49245593 65.05296587 70.14619446 76.93763733 C73.8316568 84.67713756 77.63097484 92.35068878 81.5 100 C88.48054475 113.80933852 88.48054475 113.80933852 91 120 C94.12805299 112.3923516 96.94094386 104.69408594 99.67578125 96.9375 C100.12256303 95.67510405 100.5695386 94.41277667 101.01669312 93.1505127 C101.96204635 90.48085588 102.90622127 87.81078662 103.84945679 85.14038086 C105.32325969 80.96832799 106.80055735 76.79751816 108.27856445 72.62695312 C110.25578923 67.04713811 112.23239228 61.46710376 114.20800781 55.88671875 C114.44556069 55.21573906 114.68311357 54.54475937 114.92786503 53.85344696 C116.03848848 50.7163312 117.14893132 47.57915171 118.25915527 44.44189453 C120.41456723 38.35160004 122.57293352 32.26237715 124.73739624 26.17529297 C125.36599083 24.4053024 125.99314998 22.63480133 126.61880493 20.86376953 C127.47542769 18.43916492 128.33673006 16.01627298 129.19921875 13.59375 C129.44199554 12.90285278 129.68477234 12.21195557 129.93490601 11.50012207 C131.3831332 7.45201336 133.05665651 3.88668697 135 0 C147.21 0 159.42 0 172 0 C170.02 4.62 168.04 9.24 166 14 C165.15992013 17.3603195 164.86518 19.75857144 164.83937073 23.15679932 C164.8293251 24.19935883 164.81927948 25.24191833 164.80892944 26.31607056 C164.80309845 27.45474579 164.79726746 28.59342102 164.79125977 29.76660156 C164.78147598 30.97043488 164.7716922 32.17426819 164.76161194 33.4145813 C164.73165437 37.40658607 164.70995024 41.39855495 164.69140625 45.390625 C164.68646027 46.41300278 164.68646027 46.41300278 164.68141437 47.45603466 C164.65061022 53.89887423 164.62393198 60.34171881 164.60699558 66.78461075 C164.58516771 74.98930044 164.54336982 83.19332921 164.47355801 91.39775491 C164.4260148 97.18487004 164.40202121 102.97180898 164.3947987 108.75911307 C164.38988345 112.20502686 164.3752075 115.65019539 164.3350544 119.09589386 C164.18390783 133.96757668 164.252324 146.51755227 171 160 C171.33 160.99 171.66 161.98 172 163 C156.82 163 141.64 163 126 163 C126.66 161.68 127.32 160.36 128 159 C128.87481162 156.84158628 129.72728822 154.6740438 130.5625 152.5 C130.99691406 151.3759375 131.43132812 150.251875 131.87890625 149.09375 C133.79007085 143.81973479 134.13899641 139.24664383 134.11352539 133.65136719 C134.11374443 132.39228043 134.11374443 132.39228043 134.1139679 131.10775757 C134.11327207 128.33743696 134.10549507 125.56718385 134.09765625 122.796875 C134.0957909 120.87445106 134.09436755 118.95202664 134.09336853 117.02960205 C134.08955257 111.97272425 134.07973012 106.91587523 134.06866455 101.85900879 C134.05843065 96.69767649 134.05386667 91.53633953 134.04882812 86.375 C134.03810705 76.24998737 134.02104165 66.12499608 134 56 C131.2486136 63.08279551 128.49884043 70.16621602 125.75 77.25 C125.33137695 78.32868347 124.91275391 79.40736694 124.48144531 80.51873779 C119.4316333 93.53365049 114.39631478 106.55398523 109.390625 119.5859375 C108.93677429 120.76736328 108.48292358 121.94878906 108.01531982 123.16601562 C105.81240885 128.901841 103.61155836 134.63844855 101.41308594 140.37597656 C100.60874979 142.47201512 99.80438908 144.56804425 99 146.6640625 C98.63827698 147.60994232 98.27655396 148.55582214 97.90386963 149.53036499 C96.0334761 154.40074457 94.09313789 159.22094103 92 164 C84.56479646 164.64653944 78.04482362 162.49121932 72.25 157.75 C71.5075 156.8425 70.765 155.935 70 155 C69.55169327 154.46693237 69.10338654 153.93386475 68.64149475 153.38464355 C64.21894001 147.86209553 61.6393377 142.08284043 59.05859375 135.53125 C58.6096022 134.41987671 58.16061066 133.30850342 57.69801331 132.16345215 C56.26665999 128.61334299 54.85170784 125.05696903 53.4375 121.5 C52.51607834 119.2052854 51.59355983 116.91101092 50.66992188 114.6171875 C48.7873926 109.93834694 46.91107271 105.25708199 45.03857422 100.57421875 C41.64953939 92.11070455 38.2194761 83.66397135 34.78515625 75.21875 C34.34772504 74.14298454 34.34772504 74.14298454 33.90145683 73.04548645 C32.26847642 69.02998279 30.63463068 65.01483221 29 61 C28.95354118 71.27524869 28.91806215 81.55047215 28.89637566 91.82580471 C28.88596421 96.59769351 28.87185344 101.36951014 28.84912109 106.14135742 C28.82729831 110.75142686 28.81541155 115.36142713 28.81024551 119.97154427 C28.80656664 121.72529246 28.79938293 123.47903712 28.78853989 125.23275566 C28.69952331 140.23449477 30.40721645 148.71563565 37 163 C24.79 163 12.58 163 0 163 C2 157 2 157 3.5 154.0625 C9.17951309 140.67517196 7.29313302 123.58512892 7.265625 109.421875 C7.26697504 106.95859743 7.2689184 104.49532012 7.27142334 102.03204346 C7.27435641 96.89503416 7.27013429 91.75809486 7.26074219 86.62109375 C7.24932467 80.05908033 7.25593334 73.49723014 7.26788712 66.93522263 C7.27513437 61.85812157 7.27280504 56.78105885 7.26763153 51.7039566 C7.26630421 49.28480255 7.26791032 46.86564494 7.27259064 44.44649506 C7.27770586 41.06156761 7.26987678 37.6769004 7.25878906 34.29199219 C7.26283752 33.30782318 7.26688599 32.32365417 7.27105713 31.30966187 C7.20026791 19.56307534 4.65288455 11.16692292 0 0 Z " fill="#FAFAFA" transform="translate(164,130)"/>
<path d="M0 0 C1.2260219 0.61469922 2.44308066 1.24748596 3.65234375 1.89453125 C4.33441895 2.24765381 5.01649414 2.60077637 5.71923828 2.96459961 C13.52046862 7.07521453 21.06955146 11.63197361 28.6328125 16.16015625 C34.8066879 19.85198418 41.03820941 23.43943868 47.27734375 27.01953125 C56.21671839 32.15635588 65.10681427 37.36875047 73.96484375 42.64453125 C82.76977924 47.88759548 91.61719016 53.04236907 100.52346802 58.11068726 C104.54752097 60.40109607 108.5675896 62.69849746 112.58837891 64.99462891 C114.4539889 66.05900084 116.32065821 67.12152099 118.18896484 68.18115234 C120.30861737 69.38670751 122.4193923 70.60617059 124.52734375 71.83203125 C125.60886719 72.45335938 126.69039063 73.0746875 127.8046875 73.71484375 C133.82070838 78.01802839 133.82070838 78.01802839 135.58984375 81.70703125 C136.34618156 86.79585443 136.25310039 91.86623803 136.20507812 96.99633789 C136.20858122 98.56545105 136.21424193 100.13456065 136.22189331 101.70365906 C136.23612288 105.95580668 136.21909877 110.20730621 136.19560814 114.45939183 C136.17548039 118.91200708 136.18137964 123.36459592 136.18371582 127.81724548 C136.18366227 135.29306713 136.16391986 142.76863581 136.13183594 150.24438477 C136.09493077 158.88548039 136.08616251 167.52624485 136.09313345 176.167409 C136.09943968 184.48403648 136.08868281 192.8005505 136.06916809 201.11715508 C136.06099677 204.65492813 136.05828404 208.19264318 136.05986023 211.73042488 C136.0607395 215.89608979 136.04651162 220.06144023 136.0206337 224.22702217 C136.01347509 225.75522843 136.01138682 227.28346815 136.01475143 228.81168747 C136.01846986 230.89877039 136.00370787 232.98493738 135.98425293 235.07191467 C135.98052422 236.23940782 135.9767955 237.40690096 135.9729538 238.60977268 C135.40586546 243.19440629 133.64846564 245.75159473 130.26293945 248.80712891 C127.52157454 250.75555358 124.75017127 252.45426218 121.8203125 254.10546875 C120.69657227 254.74242676 119.57283203 255.37938477 118.41503906 256.03564453 C117.82259399 256.36888733 117.23014893 256.70213013 116.61975098 257.04547119 C113.45748887 258.82459719 110.30363884 260.6185484 107.1484375 262.41015625 C106.18854416 262.95441757 106.18854416 262.95441757 105.20925903 263.50967407 C99.22613092 266.90493315 93.27771246 270.35824683 87.33984375 273.83203125 C86.36539307 274.40171631 85.39094238 274.97140137 84.38696289 275.55834961 C82.42993748 276.70304321 80.47314866 277.84814138 78.51660156 278.99365234 C64.15503979 287.40117991 49.77129995 295.7687636 35.34960938 304.07275391 C26.59541346 309.1168508 17.86652375 314.20349452 9.15234375 319.31640625 C7.74855469 320.13818359 7.74855469 320.13818359 6.31640625 320.9765625 C5.08784912 321.69743042 5.08784912 321.69743042 3.83447266 322.43286133 C-1.02302797 325.19023524 -4.71440294 326.62169626 -10.41015625 325.70703125 C-13.60728266 324.48761445 -16.47108216 322.82371582 -19.41015625 321.08203125 C-20.69841309 320.34593628 -20.69841309 320.34593628 -22.01269531 319.5949707 C-24.82230016 317.98304675 -27.6163988 316.3462451 -30.41015625 314.70703125 C-32.34190282 313.58760049 -34.2742012 312.46912147 -36.20703125 311.3515625 C-41.2662456 308.41838794 -46.31213734 305.46301998 -51.35449219 302.50097656 C-56.32642796 299.58201012 -61.30543398 296.67518854 -66.28515625 293.76953125 C-67.26967773 293.19485107 -68.25419922 292.6201709 -69.26855469 292.02807617 C-76.63600294 287.73159365 -84.02019658 283.46465512 -91.41015625 279.20703125 C-102.88936922 272.59216804 -114.35244194 265.95052064 -125.78076172 259.24804688 C-127.46608772 258.26032378 -129.15251388 257.27447406 -130.84033203 256.29101562 C-132.95054626 255.06070286 -135.05608857 253.82281738 -137.16015625 252.58203125 C-138.289375 251.91945313 -139.41859375 251.256875 -140.58203125 250.57421875 C-144.42022466 248.04016288 -146.93936456 246.11940632 -148.41015625 241.70703125 C-148.51457654 239.57962646 -148.55825597 237.44908187 -148.57078552 235.31915283 C-148.57587334 234.66816014 -148.58096116 234.01716745 -148.58620316 233.34644771 C-148.60192264 231.16098026 -148.61045132 228.97554587 -148.61889648 226.79003906 C-148.62843531 225.22461741 -148.63832649 223.65919788 -148.64854431 222.09378052 C-148.67992449 216.94926453 -148.70019477 211.8047324 -148.71875 206.66015625 C-148.72204732 205.78477927 -148.72534464 204.90940229 -148.72874188 204.00749874 C-148.75952104 195.75137857 -148.78622732 187.49525474 -148.80316067 179.23909378 C-148.82507046 168.68062438 -148.86705107 158.12266328 -148.93659824 147.5643971 C-148.98384633 140.13923841 -149.00809523 132.71421684 -149.01535755 125.28891253 C-149.02031238 120.8546273 -149.03537665 116.42091506 -149.07510185 111.98679352 C-149.11199662 107.81365197 -149.12036905 103.64141001 -149.10709572 99.46813583 C-149.10714962 97.9391075 -149.1174272 96.41003902 -149.13884735 94.88116074 C-149.31096089 81.8992941 -149.31096089 81.8992941 -145.53077698 77.35946655 C-142.97329249 74.95653014 -140.22921091 73.0713505 -137.12890625 71.41796875 C-136.13383057 70.87599854 -135.13875488 70.33402832 -134.11352539 69.77563477 C-133.05641357 69.21674561 -131.99930176 68.65785645 -130.91015625 68.08203125 C-128.64721186 66.85120908 -126.38551443 65.61809183 -124.125 64.3828125 C-122.99304199 63.76744629 -121.86108398 63.15208008 -120.69482422 62.51806641 C-115.89252473 59.87026965 -111.17948002 57.0825905 -106.47265625 54.26953125 C-98.5293419 49.53923481 -90.54850325 44.88024226 -82.53515625 40.26953125 C-74.10489598 35.41757394 -65.68505255 30.54889128 -57.28515625 25.64453125 C-56.31247803 25.07677979 -55.3397998 24.50902832 -54.33764648 23.92407227 C-49.20989465 20.9296623 -44.08469238 17.93093096 -38.9609375 14.9296875 C-37.89568848 14.30650635 -36.83043945 13.6833252 -35.73291016 13.04125977 C-33.71744858 11.86214726 -31.70273647 10.68175225 -29.68896484 9.49975586 C-27.84771809 8.42299116 -26.00274367 7.35257128 -24.15380859 6.2890625 C-22.263981 5.19935946 -20.38457807 4.09144226 -18.51416016 2.96875 C-11.85764176 -0.90561818 -7.55828298 -2.86574074 0 0 Z M-14.734375 8.42578125 C-15.74886719 9.02003906 -16.76335937 9.61429688 -17.80859375 10.2265625 C-19.43667969 11.20689453 -19.43667969 11.20689453 -21.09765625 12.20703125 C-22.25191082 12.88919537 -23.4068734 13.57016276 -24.5625 14.25 C-27.58650742 16.03309745 -30.60118337 17.83137705 -33.6137085 19.63378906 C-36.47482818 21.34309252 -39.34309054 23.04029611 -42.2109375 24.73828125 C-45.57297076 26.72934553 -48.93436167 28.72142243 -52.29296875 30.71826172 C-61.10270315 35.95253442 -69.96424531 41.09207928 -78.84716797 46.20092773 C-87.0731102 50.93199722 -95.27928324 55.69573725 -103.47070312 60.48632812 C-108.66277814 63.52281112 -113.86093325 66.54796723 -119.0703125 69.5546875 C-120.16263184 70.18689209 -121.25495117 70.81909668 -122.38037109 71.47045898 C-124.47125321 72.68027657 -126.56393196 73.88699627 -128.65869141 75.09008789 C-130.07287354 75.90981079 -130.07287354 75.90981079 -131.515625 76.74609375 C-132.75542114 77.46079834 -132.75542114 77.46079834 -134.02026367 78.18994141 C-136.74080729 79.9169266 -139.08139583 81.46033221 -141.41015625 83.70703125 C-142.16025315 86.70737032 -142.16025315 86.70737032 -142.04507446 90.12145996 C-142.05287442 90.76317312 -142.06067437 91.40488627 -142.06871068 92.06604528 C-142.08864172 94.21453756 -142.07286478 96.3612605 -142.05712891 98.50976562 C-142.06390465 100.05065444 -142.07280755 101.59153515 -142.0836792 103.13240051 C-142.10648471 107.31638482 -142.09763137 111.49975309 -142.08178377 115.68374825 C-142.06913112 120.06078892 -142.08086311 124.4377766 -142.0887146 128.81481934 C-142.09781304 136.16554238 -142.08581824 143.5160143 -142.06201172 150.86669922 C-142.03479994 159.36701694 -142.04361398 167.86673506 -142.07114375 176.36703825 C-142.09382837 183.66313929 -142.09703811 190.95905974 -142.0839504 198.25518465 C-142.07615227 202.61376049 -142.07512406 206.97205442 -142.09163284 211.33061218 C-142.1060691 215.42827632 -142.09607223 219.52516692 -142.06716156 223.62274742 C-142.06054609 225.1271861 -142.06245641 226.6316898 -142.07347488 228.13610268 C-142.08712611 230.18915001 -142.0700271 232.23971388 -142.04507446 234.29260254 C-142.04224677 236.01593685 -142.04224677 236.01593685 -142.03936195 237.774086 C-141.21041071 241.63811423 -139.66289816 242.59783779 -136.41015625 244.70703125 C-134.65546655 245.80402443 -132.87639465 246.8627284 -131.078125 247.88671875 C-130.04478027 248.478479 -129.01143555 249.07023926 -127.94677734 249.67993164 C-126.2889624 250.62147095 -126.2889624 250.62147095 -124.59765625 251.58203125 C-122.83742903 252.58837531 -121.07812882 253.59632749 -119.31884766 254.60432434 C-118.1173009 255.292622 -116.91547568 255.98043378 -115.71337891 256.66777039 C-109.88448228 260.00169418 -104.08225129 263.38063789 -98.28515625 266.76953125 C-96.81405396 267.62877197 -96.81405396 267.62877197 -95.31323242 268.50537109 C-93.33467576 269.66108602 -91.35624103 270.81700973 -89.37792969 271.97314453 C-84.39024668 274.88713965 -79.4000692 277.79685693 -74.41015625 280.70703125 C-72.41014445 281.87367768 -70.41014444 283.04034434 -68.41015625 284.20703125 C-66.92515625 285.07328125 -66.92515625 285.07328125 -65.41015625 285.95703125 C-62.41015625 287.70703125 -59.41015625 289.45703125 -56.41015625 291.20703125 C-55.41862549 291.78541748 -54.42709473 292.36380371 -53.40551758 292.9597168 C-51.42095617 294.1173911 -49.43641811 295.27510544 -47.4519043 296.43286133 C-42.2158923 299.48745294 -36.97938454 302.54119056 -31.7421875 305.59375 C-30.65099609 306.22990234 -29.55980469 306.86605469 -28.43554688 307.52148438 C-26.3445505 308.74049077 -24.25341209 309.9592536 -22.16210938 311.17773438 C-21.21916016 311.72751953 -20.27621094 312.27730469 -19.3046875 312.84375 C-18.47815674 313.32545654 -17.65162598 313.80716309 -16.80004883 314.3034668 C-14.41015625 315.70703125 -14.41015625 315.70703125 -11.97924805 317.38598633 C-8.81070977 319.01527081 -6.936239 319.1243124 -3.41015625 318.70703125 C-0.70273106 317.62443314 -0.70273106 317.62443314 1.9140625 315.98828125 C2.92855469 315.39402344 3.94304687 314.79976563 4.98828125 314.1875 C6.61636719 313.20716797 6.61636719 313.20716797 8.27734375 312.20703125 C9.43159832 311.52486713 10.5865609 310.84389974 11.7421875 310.1640625 C14.76619492 308.38096505 17.78087087 306.58268545 20.793396 304.78027344 C23.65451568 303.07096998 26.52277804 301.37376639 29.390625 299.67578125 C32.75265826 297.68471697 36.11404917 295.69264007 39.47265625 293.69580078 C48.28239065 288.46152808 57.14393281 283.32198322 66.02685547 278.21313477 C74.2527977 273.48206528 82.45897074 268.71832525 90.65039062 263.92773438 C95.84246564 260.89125138 101.04062075 257.86609527 106.25 254.859375 C107.34231934 254.22717041 108.43463867 253.59496582 109.56005859 252.94360352 C111.65094071 251.73378593 113.74361946 250.52706623 115.83837891 249.32397461 C116.78116699 248.77749268 117.72395508 248.23101074 118.6953125 247.66796875 C119.52184326 247.19149902 120.34837402 246.7150293 121.19995117 246.22412109 C123.92049479 244.4971359 126.26108333 242.95373029 128.58984375 240.70703125 C129.33994065 237.70669218 129.33994065 237.70669218 129.22476196 234.29260254 C129.23256192 233.65088938 129.24036187 233.00917623 129.24839818 232.34801722 C129.26832922 230.19952494 129.25255228 228.052802 129.23681641 225.90429688 C129.24359215 224.36340806 129.25249505 222.82252735 129.2633667 221.28166199 C129.28617221 217.09767768 129.27731887 212.91430941 129.26147127 208.73031425 C129.24881862 204.35327358 129.26055061 199.9762859 129.2684021 195.59924316 C129.27750054 188.24852012 129.26550574 180.8980482 129.24169922 173.54736328 C129.21448744 165.04704556 129.22330148 156.54732744 129.25083125 148.04702425 C129.27351587 140.75092321 129.27672561 133.45500276 129.2636379 126.15887785 C129.25583977 121.80030201 129.25481156 117.44200808 129.27132034 113.08345032 C129.2857566 108.98578618 129.27575973 104.88889558 129.24684906 100.79131508 C129.24023359 99.2868764 129.24214391 97.7823727 129.25316238 96.27795982 C129.26681361 94.22491249 129.2497146 92.17434862 129.22476196 90.12145996 C129.22193427 88.39812565 129.22193427 88.39812565 129.21904945 86.6399765 C128.39009821 82.77594827 126.84258566 81.81622471 123.58984375 79.70703125 C121.83515405 78.61003807 120.05608215 77.5513341 118.2578125 76.52734375 C117.22446777 75.9355835 116.19112305 75.34382324 115.12646484 74.73413086 C114.02125488 74.10643799 112.91604492 73.47874512 111.77734375 72.83203125 C110.01711653 71.82568719 108.25781632 70.81773501 106.49853516 69.80973816 C105.2969884 69.1214405 104.09516318 68.43362872 102.89306641 67.74629211 C97.06416978 64.41236832 91.26193879 61.03342461 85.46484375 57.64453125 C84.48410889 57.0717041 83.50337402 56.49887695 82.49291992 55.90869141 C80.51436326 54.75297648 78.53592853 53.59705277 76.55761719 52.44091797 C71.56993418 49.52692285 66.5797567 46.61720557 61.58984375 43.70703125 C59.58983195 42.54038482 57.58983194 41.37371816 55.58984375 40.20703125 C54.59984375 39.62953125 53.60984375 39.05203125 52.58984375 38.45703125 C49.58984375 36.70703125 46.58984375 34.95703125 43.58984375 33.20703125 C42.59831299 32.62864502 41.60678223 32.05025879 40.58520508 31.4543457 C38.60064367 30.2966714 36.61610561 29.13895706 34.6315918 27.98120117 C29.3955798 24.92660956 24.15907204 21.87287194 18.921875 18.8203125 C17.83068359 18.18416016 16.73949219 17.54800781 15.61523438 16.89257812 C13.524238 15.67357173 11.43309959 14.4548089 9.34179688 13.23632812 C8.39884766 12.68654297 7.45589844 12.13675781 6.484375 11.5703125 C5.24457886 10.84775269 5.24457886 10.84775269 3.97973633 10.1105957 C1.58984375 8.70703125 1.58984375 8.70703125 -0.84106445 7.02807617 C-6.06790124 4.34040024 -9.89884568 5.55181384 -14.734375 8.42578125 Z " fill="#F4F4F4" transform="translate(256.41015625,43.29296875)"/>
<path d="M0 0 C20.07846278 1.28821996 35.54525307 8.70412879 50.625 21.625 C52.74322895 23.42505438 54.86945901 25.21443003 57 27 C57.68578125 27.57621094 58.3715625 28.15242188 59.078125 28.74609375 C65.42346276 33.39474337 74.31173746 34 82 34 C81.28457031 33.63390625 80.56914063 33.2678125 79.83203125 32.890625 C71.54018423 28.38535236 65.10579077 22.95269418 58.40527344 16.37451172 C57.1854744 15.18141433 55.94234592 14.01225864 54.6953125 12.84765625 C51.48311509 9.80206659 49.20013953 7.40051161 48 3 C66.15336442 4.42379329 82.27239411 12.50048016 96 24 C97.99910617 25.6469189 99.99905569 27.29281485 102 28.9375 C103.2684375 30.00291016 103.2684375 30.00291016 104.5625 31.08984375 C109.89636506 35.26974762 113.6900848 36.44868067 120.46484375 36.4765625 C121.2866362 36.49173416 122.10842865 36.50690582 122.9551239 36.52253723 C124.70909857 36.55337646 126.46319719 36.57773521 128.21734619 36.59616089 C130.95240603 36.62515803 133.6866645 36.67137012 136.42138672 36.72290039 C140.00563934 36.79022976 143.58991337 36.85287306 147.17431641 36.91162109 C176.29816875 37.41577368 205.3384936 39.18392949 227.4765625 60.3515625 C230.92007904 63.96565571 233.96043161 67.41097113 236 72 C236.72703125 70.93072266 236.72703125 70.93072266 237.46875 69.83984375 C249.96826279 51.97996298 267.90577537 43.28433799 289 39 C294.53770845 38.23482439 300.03151652 37.73913146 305.61328125 37.45703125 C306.42751053 37.41487991 307.24173981 37.37272858 308.0806427 37.32929993 C314.38015311 37.02695475 320.67455052 36.89614674 326.98046875 36.82421875 C327.90014435 36.81222443 328.81981995 36.8002301 329.7673645 36.78787231 C333.53446717 36.73949656 337.3012121 36.69163065 341.06860352 36.67407227 C343.8730724 36.65857006 346.67632467 36.61844746 349.48046875 36.57421875 C350.73998604 36.57708138 350.73998604 36.57708138 352.02494812 36.58000183 C359.26720759 36.43051832 365.12865035 34.10938191 370.52734375 29.1953125 C371.08711914 28.69717041 371.64689453 28.19902832 372.22363281 27.68579102 C372.78920898 27.17072998 373.35478516 26.65566895 373.9375 26.125 C379.04493522 21.62303641 384.09084474 17.43147606 390 14 C390.70511719 13.58621094 391.41023438 13.17242187 392.13671875 12.74609375 C397.59726387 9.78868476 403.32958538 7.70210472 409.1875 5.6875 C409.94796631 5.42066406 410.70843262 5.15382813 411.49194336 4.87890625 C416.18997319 3.32126521 420.05273507 2.71823524 425 3 C422.27430776 8.1716595 419.33760087 12.20865922 415.1875 16.3125 C414.63215576 16.86647461 414.07681152 17.42044922 413.50463867 17.99121094 C406.92352384 24.33985808 399.1942076 29.9028962 391 34 C407.0087636 33.13223524 416.37123064 27.2522024 427.875 16.375 C439.62437854 6.01795945 457.3182393 -0.66730897 473 0 C467.33943705 12.54274312 453.45021171 22.28156085 441 27 C439.95972656 27.40347656 438.91945313 27.80695313 437.84765625 28.22265625 C432.23410363 30.23833345 426.65741564 31.59995797 420.765625 32.5078125 C417.84010477 32.98948019 417.84010477 32.98948019 414.390625 33.953125 C409.15892743 35.29126547 403.84917635 35.93704819 398.5 36.625 C397.48679687 36.7590625 396.47359375 36.893125 395.4296875 37.03125 C392.95363391 37.35827595 390.47711025 37.68109442 388 38 C388.969375 38.31710937 389.93875 38.63421875 390.9375 38.9609375 C398.63180454 41.59511098 405.66677365 44.65988354 412.5625 49 C413.20380859 49.4026709 413.84511719 49.8053418 414.50585938 50.22021484 C418.91747539 53.08730523 423.35791693 56.17934912 427 60 C427 60.66 427 61.32 427 62 C419.46316619 62.25548589 412.40845806 61.36999755 405 60 C404.01902344 59.82855469 403.03804688 59.65710938 402.02734375 59.48046875 C389.89130372 56.94872419 379.37779188 50.13613733 369.171875 43.34765625 C365.81122881 41.2623632 363.16243014 40.87427255 359.29516602 40.87060547 C358.33888809 40.86745331 357.38261017 40.86430115 356.39735413 40.86105347 C355.36001633 40.8630777 354.32267853 40.86510193 353.25390625 40.8671875 C351.63342628 40.86575241 351.63342628 40.86575241 349.98020935 40.86428833 C347.6810602 40.86360657 345.38190914 40.86546059 343.08276367 40.86962891 C339.63520717 40.87488907 336.18778632 40.86973037 332.74023438 40.86328125 C307.62949592 40.17248156 307.62949592 40.17248156 283 44 C281.86691406 44.31710937 280.73382813 44.63421875 279.56640625 44.9609375 C265.28010848 49.31847766 249.76153205 56.52842846 241.4375 69.5625 C239.77352302 73.54157539 239.30071681 76.71478542 239 81 C238.01 80.67 237.02 80.34 236 80 C235.01 80.66 234.02 81.32 233 82 C233.0825 81.01 233.165 80.02 233.25 79 C233.23731183 72.7193539 229.69007702 67.07478463 225.578125 62.4921875 C203.21575313 41.34756856 169.53002565 40.19851216 140.59179688 39.92919922 C138.02278358 39.89295615 135.45403052 39.82438643 132.88671875 39.72412109 C115.19930423 39.03642653 103.61462085 41.07892739 89.15722656 51.58642578 C76.35645227 60.74020347 60.15681469 61.33183416 45 62 C46.3096364 58.98615725 47.50542174 57.31788474 50.203125 55.44921875 C50.84733398 55.00118896 51.49154297 54.55315918 52.15527344 54.09155273 C52.8465332 53.62821533 53.53779297 53.16487793 54.25 52.6875 C54.95930664 52.20547119 55.66861328 51.72344238 56.39941406 51.22680664 C62.98961356 46.83847286 69.82304625 43.32661505 77 40 C78.33494355 39.33656354 79.66860181 38.670523 81 38 C80.19594727 37.87995605 79.39189453 37.75991211 78.56347656 37.63623047 C62.39516509 35.18445941 46.39315213 32.73669083 31 27 C30.35724121 26.76651855 29.71448242 26.53303711 29.05224609 26.29248047 C18.01393193 22.10693789 5.79367907 12.90002399 0.578125 2.0390625 C0.38734375 1.36617188 0.1965625 0.69328125 0 0 Z " fill="#070707" transform="translate(14,367)"/>
<path d="M0 0 C-5.66056295 12.54274312 -19.54978829 22.28156085 -32 27 C-33.04027344 27.40347656 -34.08054687 27.80695313 -35.15234375 28.22265625 C-40.76589637 30.23833345 -46.34258436 31.59995797 -52.234375 32.5078125 C-55.15989523 32.98948019 -55.15989523 32.98948019 -58.609375 33.953125 C-63.84107257 35.29126547 -69.15082365 35.93704819 -74.5 36.625 C-76.01980469 36.82609375 -76.01980469 36.82609375 -77.5703125 37.03125 C-80.04636609 37.35827595 -82.52288975 37.68109442 -85 38 C-83.5459375 38.47566406 -83.5459375 38.47566406 -82.0625 38.9609375 C-74.36819546 41.59511098 -67.33322635 44.65988354 -60.4375 49 C-59.47553711 49.60400635 -59.47553711 49.60400635 -58.49414062 50.22021484 C-54.08252461 53.08730523 -49.64208307 56.17934912 -46 60 C-46 60.66 -46 61.32 -46 62 C-53.53683381 62.25548589 -60.59154194 61.36999755 -68 60 C-68.98097656 59.82855469 -69.96195312 59.65710938 -70.97265625 59.48046875 C-83.06443017 56.95795871 -93.53939459 50.17674398 -103.73046875 43.4453125 C-107.60194625 40.97982769 -110.34731625 39.75558599 -114.984375 39.5859375 C-116.38623047 39.52792969 -116.38623047 39.52792969 -117.81640625 39.46875 C-118.78449219 39.4378125 -119.75257813 39.406875 -120.75 39.375 C-121.73355469 39.33632813 -122.71710938 39.29765625 -123.73046875 39.2578125 C-126.15346037 39.16371574 -128.57644796 39.07807672 -131 39 C-131 38.34 -131 37.68 -131 37 C-129.865625 36.97421875 -128.73125 36.9484375 -127.5625 36.921875 C-126.04163069 36.86554651 -124.52079883 36.80820029 -123 36.75 C-121.88431641 36.72873047 -121.88431641 36.72873047 -120.74609375 36.70703125 C-111.58124923 36.30855975 -105.67317509 32.14523445 -99.0625 26.125 C-93.95506478 21.62303641 -88.90915526 17.43147606 -83 14 C-82.29488281 13.58621094 -81.58976562 13.17242187 -80.86328125 12.74609375 C-75.40273613 9.78868476 -69.67041462 7.70210472 -63.8125 5.6875 C-63.05203369 5.42066406 -62.29156738 5.15382813 -61.50805664 4.87890625 C-56.81002681 3.32126521 -52.94726493 2.71823524 -48 3 C-50.72569224 8.1716595 -53.66239913 12.20865922 -57.8125 16.3125 C-58.36784424 16.86647461 -58.92318848 17.42044922 -59.49536133 17.99121094 C-66.07647616 24.33985808 -73.8057924 29.9028962 -82 34 C-65.9912364 33.13223524 -56.62876936 27.2522024 -45.125 16.375 C-33.37562146 6.01795945 -15.6817607 -0.66730897 0 0 Z " fill="#050505" transform="translate(487,367)"/>
<path d="M0 0 C73.36349554 -0.66065769 73.36349554 -0.66065769 98.4765625 23.3515625 C101.92007904 26.96565571 104.96043161 30.41097113 107 35 C107.4846875 34.28714844 107.969375 33.57429688 108.46875 32.83984375 C120.96826279 14.97996298 138.90577537 6.28433799 160 2 C165.45298504 1.22337955 170.87628805 0.73019567 176.375 0.4375 C177.16430908 0.3950415 177.95361816 0.35258301 178.7668457 0.30883789 C190.16862475 -0.23213435 201.58900866 -0.08684164 213 0 C213 0.66 213 1.32 213 2 C219.93 2 226.86 2 234 2 C234 2.33 234 2.66 234 3 C233.12701263 3.0154612 233.12701263 3.0154612 232.23638916 3.03123474 C226.06962769 3.14109026 219.90296153 3.25549583 213.73632812 3.37231445 C211.44793734 3.41510159 209.15952597 3.45680391 206.87109375 3.49731445 C195.47195399 3.69979917 184.07949394 3.92935141 172.69140625 4.48828125 C171.88322449 4.52747177 171.07504272 4.56666229 170.24237061 4.60704041 C164.64752061 4.90444769 159.38309674 5.44734769 154 7 C152.86691406 7.31710937 151.73382813 7.63421875 150.56640625 7.9609375 C136.28010848 12.31847766 120.76153205 19.52842846 112.4375 32.5625 C110.77352302 36.54157539 110.30071681 39.71478542 110 44 C108.515 43.505 108.515 43.505 107 43 C106.01 43.66 105.02 44.32 104 45 C104.0825 44.01 104.165 43.02 104.25 42 C104.23731183 35.7193539 100.69007702 30.07478463 96.578125 25.4921875 C88.94066656 18.27063027 79.51830949 14.12278777 70 10 C69.22406494 9.66081543 68.44812988 9.32163086 67.64868164 8.97216797 C64.81545096 7.93226341 62.18587944 7.41592147 59.203125 6.96484375 C58.08655518 6.7956543 56.96998535 6.62646484 55.81958008 6.45214844 C54.64161865 6.28231445 53.46365723 6.11248047 52.25 5.9375 C51.04819092 5.7612207 49.84638184 5.58494141 48.6081543 5.40332031 C39.41071313 4.09917332 30.2828096 3.26185641 21 3 C21 2.34 21 1.68 21 1 C14.07 1 7.14 1 0 1 C0 0.67 0 0.34 0 0 Z " fill="#131313" transform="translate(143,404)"/>
<path d="M0 0 C0 0.66 0 1.32 0 2 C6.93 2 13.86 2 21 2 C21 2.33 21 2.66 21 3 C20.12701263 3.0154612 20.12701263 3.0154612 19.23638916 3.03123474 C13.06962769 3.14109026 6.90296153 3.25549583 0.73632812 3.37231445 C-1.55206266 3.41510159 -3.84047403 3.45680391 -6.12890625 3.49731445 C-17.49227748 3.69916381 -28.85032363 3.92544573 -40.203125 4.47265625 C-40.99716736 4.50975204 -41.79120972 4.54684784 -42.60931396 4.58506775 C-47.12680067 4.8220692 -51.53152022 5.29260164 -56 6 C-56 5.34 -56 4.68 -56 4 C-56.66 3.67 -57.32 3.34 -58 3 C-38.83072502 -0.54476719 -19.4229443 -0.14781541 0 0 Z " fill="#303030" transform="translate(356,404)"/>
<path d="M0 0 C53.41397112 -0.48100694 53.41397112 -0.48100694 63 5 C62.67 5.66 62.34 6.32 62 7 C61.36199463 6.91435791 60.72398926 6.82871582 60.06665039 6.74047852 C47.0510976 5.00966827 34.12375309 3.5171044 21 3 C21 2.34 21 1.68 21 1 C14.07 1 7.14 1 0 1 C0 0.67 0 0.34 0 0 Z " fill="#191919" transform="translate(143,404)"/>
<path d="M0 0 C0.33 0 0.66 0 1 0 C1 29.37 1 58.74 1 89 C0.67 89 0.34 89 0 89 C-0.01030746 87.99188766 -0.02061493 86.98377533 -0.03123474 85.94511414 C-0.12890445 76.45407472 -0.23163245 66.96310181 -0.33933926 57.47217083 C-0.39455176 52.59255425 -0.44796915 47.71293167 -0.49731445 42.83325195 C-0.54498259 38.12590583 -0.5973264 33.418633 -0.65294075 28.71137428 C-0.67335318 26.91362134 -0.6920681 25.11584831 -0.70907402 23.31805992 C-0.73314258 20.80400697 -0.76319386 18.29009252 -0.79467773 15.77612305 C-0.8004332 15.02949905 -0.80618866 14.28287506 -0.81211853 13.5136261 C-0.85638576 10.41287071 -1.01190669 7.96427994 -2 5 C-1.0625 2.3125 -1.0625 2.3125 0 0 Z " fill="#121212" transform="translate(298,183)"/>
<path d="M0 0 C1.41750563 0.11509661 2.83401169 0.24253658 4.25 0.375 C5.03890625 0.44460938 5.8278125 0.51421875 6.640625 0.5859375 C9.085877 1.01507113 10.84836903 1.78600638 13 3 C12.67 3.66 12.34 4.32 12 5 C6.39 4.34 0.78 3.68 -5 3 C-5 2.67 -5 2.34 -5 2 C-3.35 1.67 -1.7 1.34 0 1 C0 0.67 0 0.34 0 0 Z " fill="#3A3A3A" transform="translate(193,406)"/>
<path d="M0 0 C5.86809507 0.52393706 10.54873741 1.76108858 16 4 C15.01 4.99 14.02 5.98 13 7 C8.71 5.35 4.42 3.7 0 2 C0 1.34 0 0.68 0 0 Z " fill="#171717" transform="translate(205,409)"/>
<path d="M0 0 C0 0.66 0 1.32 0 2 C0.66 2.33 1.32 2.66 2 3 C-2.95 3.66 -7.9 4.32 -13 5 C-12.67 4.01 -12.34 3.02 -12 2 C-10.37548581 1.66430703 -8.75037083 1.3315204 -7.125 1 C-6.22007812 0.814375 -5.31515625 0.62875 -4.3828125 0.4375 C-2 0 -2 0 0 0 Z " fill="#222222" transform="translate(422,399)"/>
<path d="M0 0 C-1 3 -1 3 -2.77734375 4.203125 C-3.49019531 4.54859375 -4.20304687 4.8940625 -4.9375 5.25 C-6.00291016 5.78367187 -6.00291016 5.78367187 -7.08984375 6.328125 C-8.03537109 6.66070312 -8.03537109 6.66070312 -9 7 C-9.66 6.67 -10.32 6.34 -11 6 C-7.57865372 2.33427184 -5.14341528 0 0 0 Z " fill="#0E0E0E" transform="translate(283,413)"/>
<path d="M0 0 C2.97 0.495 2.97 0.495 6 1 C5.67 1.99 5.34 2.98 5 4 C2.03 3.67 -0.94 3.34 -4 3 C-2.68 2.67 -1.36 2.34 0 2 C0 1.34 0 0.68 0 0 Z " fill="#333333" transform="translate(200,407)"/>
</svg>
