<?xml version="1.0" encoding="UTF-8"?>
<svg version="1.1" xmlns="http://www.w3.org/2000/svg" width="500" height="500">
<path d="M0 0 C165 0 330 0 500 0 C500 165 500 330 500 500 C335 500 170 500 0 500 C0 335 0 170 0 0 Z " fill="#000000" transform="translate(0,0)"/>
<path d="M0 0 C36.96 0 73.92 0 112 0 C117.28 13.53 122.56 27.06 128 41 C129.8871875 45.83527344 131.774375 50.67054687 133.71875 55.65234375 C136.16015625 61.92382812 136.16015625 61.92382812 137.32470703 64.91821289 C138.13560862 67.00139112 138.94786651 69.08404172 139.76123047 71.16625977 C140.97938615 74.28540539 142.19329655 77.40617211 143.40625 80.52734375 C143.77165894 81.46021713 144.13706787 82.39309052 144.5135498 83.35423279 C144.84230103 84.20276321 145.17105225 85.05129364 145.50976562 85.92553711 C145.79903931 86.66791122 146.08831299 87.41028534 146.38635254 88.17515564 C147 90 147 90 147 92 C142.14686868 92.08367468 137.79286977 91.8720551 133 91 C133.72703125 91.83917969 133.72703125 91.83917969 134.46875 92.6953125 C140.68112229 100.1262655 146.90383707 108.7115112 150 118 C150.33 113.38 150.66 108.76 151 104 C154.15542859 105.57771429 154.38827379 108.21351427 155.58984375 111.46875 C155.84630676 112.15597137 156.10276978 112.84319275 156.36700439 113.55123901 C156.93093367 115.0638799 157.49174452 116.57768599 158.04989624 118.09246826 C159.5854662 122.25754008 161.14556341 126.41342558 162.703125 130.5703125 C163.03849777 131.46698639 163.37387054 132.36366028 163.71940613 133.2875061 C167.70413424 143.91980491 171.8051345 154.50697158 175.9133606 165.09204102 C177.17344584 168.33878793 178.43135742 171.58637157 179.68920898 174.83398438 C180.47360617 176.85554225 181.2581843 178.87702993 182.04296875 180.8984375 C182.39868958 181.81680389 182.7544104 182.73517029 183.12091064 183.68136597 C184.9937522 188.49559766 186.9327046 193.2658895 189 198 C189.61536621 196.36369629 189.61536621 196.36369629 190.24316406 194.69433594 C199.07501099 171.22023338 207.98374945 147.77725568 217.00271606 124.37438965 C223.1501103 108.42274001 229.26790483 92.46015915 235.3581543 76.48660278 C242.4547363 57.87371489 249.57415527 39.2699895 256.75 20.6875 C257.11692963 19.73641357 257.48385925 18.78532715 257.86190796 17.80541992 C258.88073838 15.16540328 259.9009999 12.5259453 260.921875 9.88671875 C261.22182877 9.10938889 261.52178253 8.33205902 261.83082581 7.53117371 C263.88438582 2.23122836 263.88438582 2.23122836 265 0 C301.96 0 338.92 0 377 0 C377 114.18 377 228.36 377 346 C350.93 346 324.86 346 298 346 C297.505 239.08 297.505 239.08 297 130 C282.52845164 164.98760525 282.52845164 164.98760525 268.19445801 200.03057861 C265.91750033 205.6360694 263.63608614 211.23974744 261.35546875 216.84375 C260.90136627 217.95988678 260.44726379 219.07602356 259.97940063 220.22598267 C253.77823643 235.46515522 247.5428927 250.69034003 241.30860901 265.91598511 C238.61410921 272.49741717 235.92366229 279.08049904 233.234375 285.6640625 C219.7327692 318.71202909 219.7327692 318.71202909 213.9375 332.625 C213.53789062 333.58438477 213.13828125 334.54376953 212.7265625 335.53222656 C210.13697252 341.72605496 210.13697252 341.72605496 209 344 C195.47 344 181.94 344 168 344 C165.29860456 338.59720912 162.82166476 333.33094509 160.6171875 327.73828125 C160.16667526 326.60775581 160.16667526 326.60775581 159.70706177 325.45439148 C158.7597541 323.07505224 157.81728354 320.69383276 156.875 318.3125 C156.23599999 316.70494973 155.59667968 315.09752674 154.95703125 313.49023438 C153.78561722 310.54545885 152.61601693 307.59997848 151.44873047 304.65356445 C150.58344237 302.47138777 149.70332845 300.294865 148.79296875 298.13110352 C147.82038047 295.51727251 147.98418628 294.57405225 149 292 C150.41199274 289.1168292 151.91860691 286.29326444 153.4296875 283.4609375 C159.50414532 270.07295335 160.98044979 252.78913001 156.0625 238.75 C148.37407995 222.55934384 134.30958931 209.82808628 119.8984375 199.6328125 C119.29660645 199.20315186 118.69477539 198.77349121 118.07470703 198.33081055 C115.96042575 196.91345233 115.96042575 196.91345233 113.35888672 195.74145508 C103.32948483 190.57690733 101.01348304 182.47407531 97.375 172.4375 C96.74049872 170.7698657 96.10237282 169.10360614 95.46069336 167.4387207 C94.19792633 164.15186641 92.95226639 160.85939681 91.72119141 157.56054688 C89.46745068 151.54743946 87.02557113 145.61769073 84.5625 139.6875 C83.386875 136.820625 82.21125 133.95375 81 131 C80.67 145.19 80.34 159.38 80 174 C73.18837854 170.28457011 66.81663638 166.77534486 60.5625 162.3125 C59.83949707 161.79921143 59.11649414 161.28592285 58.37158203 160.75708008 C51.75345201 155.97275719 45.84803545 150.69342176 40 145 C39.32582031 144.39929688 38.65164062 143.79859375 37.95703125 143.1796875 C28.37425038 134.42191425 23.40859021 122.56252788 22.72265625 109.74609375 C22.49000036 102.35423774 22.56870387 95.71962158 26 89 C25.34 89 24.68 89 24 89 C23.59587891 90.08861328 23.59587891 90.08861328 23.18359375 91.19921875 C22.02169447 93.94866358 20.66012868 96.29613321 19.0625 98.8125 C10.28298551 113.27413335 8.68376213 131.27385217 11.6875 147.77734375 C13.68280633 154.237148 16.91630971 159.64821641 21 165 C21.721875 165.99 22.44375 166.98 23.1875 168 C35.11256518 181.73646749 52.95909396 191.42470441 68.47802734 200.48950195 C69.31027832 200.98796631 70.1425293 201.48643066 71 202 C71.9723569 202.38249562 71.9723569 202.38249562 72.96435738 202.77271843 C75.46588447 203.93036894 77.11054613 204.97780199 79 207 C80.20307112 211.42173856 80.01045164 215.77072823 79.90820312 220.32739258 C79.90594533 221.69756945 79.90721556 223.067756 79.91174316 224.43792725 C79.91403646 228.15117374 79.8670452 231.86234825 79.8111515 235.57511353 C79.76110161 239.45741373 79.75643871 243.33976278 79.74694824 247.22233582 C79.72209418 254.57144017 79.65646166 261.91959118 79.57615232 269.26827592 C79.46996723 279.20057148 79.42682129 289.13312823 79.38013458 299.06584835 C79.30493521 314.71127951 79.14555649 330.35469898 79 346 C52.93 346 26.86 346 0 346 C0 333.46 0 320.92 0 308 C7.79568943 304.88172423 14.31189542 305.9132035 22.3125 307.375 C23.00641846 307.50092529 23.70033691 307.62685059 24.4152832 307.7565918 C27.88782116 308.43338881 30.94099268 309.19133243 34 311 C31.60954156 308.41033669 29.08055673 306.26584185 26.25 304.1875 C17.25211691 297.48059083 10.4061358 290.18523691 4 281 C3.30254795 280.00922927 2.6050959 279.01845854 1.88650894 277.99766445 C-0.84510842 273.12012754 -0.54190726 268.22102814 -0.48101807 262.75611877 C-0.48614462 261.06880729 -0.48614462 261.06880729 -0.49137473 259.34740871 C-0.49795747 255.58233851 -0.47596973 251.81798293 -0.45410156 248.05297852 C-0.45297317 245.35245662 -0.45343068 242.65197836 -0.45587158 239.95146179 C-0.45796626 234.13963502 -0.44544498 228.32798824 -0.42292023 222.51620674 C-0.39037482 214.1134379 -0.37999063 205.71075586 -0.37496826 197.30793082 C-0.36621958 183.67406929 -0.33961563 170.04030363 -0.30175781 156.40649414 C-0.26502665 143.16463703 -0.2367203 129.92280599 -0.21972656 116.6809082 C-0.21867567 115.86431048 -0.21762477 115.04771276 -0.21654204 114.20636965 C-0.21132178 110.10962873 -0.20626698 106.01288762 -0.20129442 101.9161464 C-0.15984568 67.94401263 -0.08611505 33.9720572 0 0 Z " fill="#FDFDFD" transform="translate(51,42)"/>
</svg>
